<svg width="26" height="30" viewBox="0 0 26 30" fill="none" xmlns="http://www.w3.org/2000/svg">
<path d="M2.21012 26.7737C2.21012 27.5017 2.49932 28.1999 3.01411 28.7147C3.52889 29.2295 4.22709 29.5187 4.95511 29.5187H21.425C22.1531 29.5187 22.8512 29.2295 23.366 28.7147C23.8808 28.1999 24.17 27.5017 24.17 26.7737V7.55875H2.21012V26.7737ZM17.7651 12.1337C17.7651 11.8911 17.8615 11.6583 18.033 11.4867C18.2046 11.3151 18.4374 11.2187 18.68 11.2187C18.9227 11.2187 19.1555 11.3151 19.327 11.4867C19.4986 11.6583 19.595 11.8911 19.595 12.1337V24.9437C19.595 25.1863 19.4986 25.4191 19.327 25.5907C19.1555 25.7623 18.9227 25.8587 18.68 25.8587C18.4374 25.8587 18.2046 25.7623 18.033 25.5907C17.8615 25.4191 17.7651 25.1863 17.7651 24.9437V12.1337ZM12.2751 12.1337C12.2751 11.8911 12.3715 11.6583 12.5431 11.4867C12.7147 11.3151 12.9474 11.2187 13.1901 11.2187C13.4327 11.2187 13.6655 11.3151 13.8371 11.4867C14.0087 11.6583 14.1051 11.8911 14.1051 12.1337V24.9437C14.1051 25.1863 14.0087 25.4191 13.8371 25.5907C13.6655 25.7623 13.4327 25.8587 13.1901 25.8587C12.9474 25.8587 12.7147 25.7623 12.5431 25.5907C12.3715 25.4191 12.2751 25.1863 12.2751 24.9437V12.1337ZM6.7851 12.1337C6.7851 11.8911 6.8815 11.6583 7.0531 11.4867C7.22469 11.3151 7.45742 11.2187 7.7001 11.2187C7.94277 11.2187 8.1755 11.3151 8.3471 11.4867C8.51869 11.6583 8.61509 11.8911 8.61509 12.1337V24.9437C8.61509 25.1863 8.51869 25.4191 8.3471 25.5907C8.1755 25.7623 7.94277 25.8587 7.7001 25.8587C7.45742 25.8587 7.22469 25.7623 7.0531 25.5907C6.8815 25.4191 6.7851 25.1863 6.7851 24.9437V12.1337ZM25.085 2.06877H18.2225L17.685 0.99937C17.5711 0.770743 17.3957 0.578428 17.1785 0.444058C16.9613 0.309688 16.7109 0.238596 16.4555 0.23878H9.91896C9.66412 0.2378 9.41416 0.308627 9.19772 0.443146C8.98127 0.577665 8.8071 0.770435 8.69515 0.99937L8.15759 2.06877H1.29512C1.05245 2.06877 0.819718 2.16517 0.648123 2.33677C0.476528 2.50836 0.380127 2.7411 0.380127 2.98377L0.380127 4.81376C0.380127 5.05643 0.476528 5.28916 0.648123 5.46076C0.819718 5.63235 1.05245 5.72876 1.29512 5.72876H25.085C25.3277 5.72876 25.5604 5.63235 25.732 5.46076C25.9036 5.28916 26 5.05643 26 4.81376V2.98377C26 2.7411 25.9036 2.50836 25.732 2.33677C25.5604 2.16517 25.3277 2.06877 25.085 2.06877Z" fill="#C52525"/>
</svg>
