<svg width="36" height="32" viewBox="0 0 36 32" fill="none" xmlns="http://www.w3.org/2000/svg">
<path d="M24.8476 5.12875L30.4145 10.6957C30.649 10.9302 30.649 11.3129 30.4145 11.5474L16.9354 25.0266L11.2079 25.6623C10.4426 25.7487 9.79461 25.1006 9.88102 24.3353L10.5167 18.6079L23.9959 5.12875C24.2304 4.89422 24.613 4.89422 24.8476 5.12875ZM34.8459 3.71541L31.834 0.703583C30.8959 -0.234528 29.3715 -0.234528 28.4272 0.703583L26.2424 2.88839C26.0079 3.12292 26.0079 3.50557 26.2424 3.7401L31.8093 9.30704C32.0439 9.54157 32.4265 9.54157 32.661 9.30704L34.8459 7.12223C35.784 6.17795 35.784 4.65352 34.8459 3.71541ZM23.6996 21.3605V27.6434H3.94994V7.8937H18.1327C18.3302 7.8937 18.5153 7.81347 18.6573 7.67769L21.126 5.20898C21.595 4.73993 21.2618 3.94377 20.6014 3.94377H2.96245C1.32693 3.94377 0 5.2707 0 6.90622V28.6309C0 30.2664 1.32693 31.5933 2.96245 31.5933H24.6871C26.3226 31.5933 27.6496 30.2664 27.6496 28.6309V18.8918C27.6496 18.2314 26.8534 17.9043 26.3843 18.3672L23.9156 20.8359C23.7799 20.9779 23.6996 21.163 23.6996 21.3605Z" fill="#C52525"/>
</svg>
